<svg id="Layer_1" data-name="Layer 1" xmlns="http://www.w3.org/2000/svg" viewBox="0 0 140.3 28.85"><defs><style>.cls-1{fill:#2b2624;}</style></defs><title>littleoak-logo</title><path class="cls-1" d="M38.4,24.75h4.19c3,0,4.65-1.67,6.61-4.28h0l-1.89,4.92H34.74v0c1.3-.5,1.77-1.48,2.19-3.11l2.73-10.92a7.08,7.08,0,0,0,.24-1.55A1.54,1.54,0,0,0,39,8.22V8.17h5v.05c-1.3.49-1.77,1.47-2.19,3.1Z"/><path class="cls-1" d="M53.21,23.23a2.06,2.06,0,0,0-.07.47,1,1,0,0,0,1.11,1,3.26,3.26,0,0,0,1.35-.39l0,.05a3.73,3.73,0,0,1-2.69,1.3,1.7,1.7,0,0,1-1.89-1.77,2.57,2.57,0,0,1,.1-.74l1.79-7.21a2.38,2.38,0,0,0,.1-.71,2,2,0,0,0-1.15-1.73v-.05h3.76ZM55.38,7.77a1.35,1.35,0,0,1,1.43,1.38,1.58,1.58,0,0,1-1.6,1.6,1.35,1.35,0,0,1-1.43-1.38A1.59,1.59,0,0,1,55.38,7.77Z"/><path class="cls-1" d="M59.76,22.93a3.65,3.65,0,0,0,0,.42c0,.79.59,1.21,1.4,1.21a3.47,3.47,0,0,0,2.42-1.21l0,0a4.58,4.58,0,0,1-3.83,2.24c-1.41,0-2.19-.76-2.19-1.92a2.92,2.92,0,0,1,.09-.74l2.19-8.91H58.11l0-.14c2.38-.67,3.81-2.27,4.92-4.73h.17l-1.11,4.23h3.45l-.27.64H62Z"/><path class="cls-1" d="M67.71,22.93a2.27,2.27,0,0,0,0,.42c0,.79.59,1.21,1.4,1.21a3.43,3.43,0,0,0,2.41-1.21l0,0a4.58,4.58,0,0,1-3.84,2.24c-1.4,0-2.19-.76-2.19-1.92a3,3,0,0,1,.1-.74l2.19-8.91H66.06l0-.14c2.39-.67,3.82-2.27,4.93-4.73h.17l-1.11,4.23h3.45l-.27.64H69.92Z"/><path class="cls-1" d="M76.79,9.45a3.87,3.87,0,0,0,.12-.81c0-.87-.54-1.21-1.35-1.63V7H79.5l-4,16.27a1.62,1.62,0,0,0-.07.47,1,1,0,0,0,1.11,1,3.26,3.26,0,0,0,1.35-.39l0,.05a3.69,3.69,0,0,1-2.68,1.3,1.7,1.7,0,0,1-1.89-1.77,2.57,2.57,0,0,1,.1-.74Z"/><path class="cls-1" d="M79.42,20.84c0-3.86,3-7.65,7.11-7.65,2,0,3.4,1.11,3.4,2.61,0,2.73-3.49,3.89-8.27,4A9.36,9.36,0,0,0,81.59,21c0,2.61,1.28,3.74,3.25,3.74A5.14,5.14,0,0,0,89,22.39H89a5.33,5.33,0,0,1-5,3.25A4.47,4.47,0,0,1,79.42,20.84Zm2.29-1.3c3.62-.27,6.2-1.38,6.2-4.26,0-.93-.47-1.6-1.38-1.6C84.17,13.68,82.2,16.56,81.71,19.54Z"/><path class="cls-1" d="M104.28,25.64a8.54,8.54,0,0,1-8.45-8.86,8.45,8.45,0,1,1,16.89,0A8.54,8.54,0,0,1,104.28,25.64Zm0-17.15c-3.87,0-5.89,3.57-5.89,8.29s2,8.3,5.89,8.3,5.88-3.57,5.88-8.3S108.14,8.49,104.28,8.49Z"/><path class="cls-1" d="M126.59,24.56a2.64,2.64,0,0,1-2.21,1,2.11,2.11,0,0,1-2.19-2.16c0-.1,0-.91,0-1.19A4.22,4.22,0,0,1,118,25.57c-1.94,0-3.49-1-3.49-3.05,0-2.64,2.78-3.25,5.71-3.79l1.87-.35V17c0-1.8-.84-3.32-2.86-3.32-1.82,0-2.51.93-2.51,2A1.16,1.16,0,0,0,117.88,17a.76.76,0,0,0,.32-.08A1.3,1.3,0,0,1,116.8,18a1.7,1.7,0,0,1-1.8-1.79c0-1.6,1.73-3,4.26-3,3.2,0,5.12,1.23,5.12,4.16,0,2.19-.07,3.81-.07,5.31s.51,2.05,1.55,2.05a1.42,1.42,0,0,0,.73-.2Zm-6.12-5.39c-2.44.47-3.62,1.35-3.62,3.1a1.93,1.93,0,0,0,2.09,2.21c1.55,0,3.08-1.3,3.13-3.59l.05-2Z"/><path class="cls-1" d="M131.37,18.5a2.35,2.35,0,0,0,2-.86l2-2.21a1.42,1.42,0,0,0,.44-1,1.07,1.07,0,0,0-.81-1v-.05h4.5v.05a6.52,6.52,0,0,0-3.39,2.07l-2.54,2.71,3.74,4.87a5.55,5.55,0,0,0,3,2.22v0h-4.23a4.68,4.68,0,0,0-1-1.77L132,19.56a1,1,0,0,0-.93-.51h-.47v3.66c0,1.63.22,2.14,1.4,2.64v0h-5v0c1.18-.5,1.4-1,1.4-2.64V9.65c0-1.41-.34-2.15-1.52-2.64V7h3.69V18.5Z"/><g id="uc3FQJ.tif"><path class="cls-1" d="M18.37,27.69a4.15,4.15,0,0,1-.05.56.38.38,0,0,1-.21.2,3.37,3.37,0,0,1-.34.1,1.46,1.46,0,0,0-.31.14.72.72,0,0,1-.87,0,2.89,2.89,0,0,0-.58-.35,1.6,1.6,0,0,0-.54-.05l-.89.06a10.55,10.55,0,0,1-2.1-.14l-.34,0L11.45,28l-.39-.12a2.51,2.51,0,0,1-1.24-.56.5.5,0,0,0-.21-.12,1.63,1.63,0,0,1-.87-.52.33.33,0,0,0-.14-.1,4.25,4.25,0,0,1-1.25-1,2.61,2.61,0,0,0-.24-.23l-.52-.53c-.18-.19-.37-.37-.54-.57s-.3-.4-.45-.61c0,0,0-.08-.07-.11a6.11,6.11,0,0,1-.74-1.13c-.1-.16-.18-.33-.28-.5s-.18-.32-.25-.48-.23-.57-.35-.86-.2-.4-.29-.6a1.08,1.08,0,0,1-.12-.24c-.12-.36-.22-.72-.34-1.08s-.21-.65-.32-1a.69.69,0,0,1,0-.24,1.36,1.36,0,0,0-.21-.74.41.41,0,0,0-.2-.17A.57.57,0,0,1,2,16.06c0-.24-.14-.29-.38-.33a.84.84,0,0,1-.41-.17,4.35,4.35,0,0,1-.57-.64.7.7,0,0,1-.07-.33c0-.08,0-.16,0-.23a.43.43,0,0,0-.2-.49.39.39,0,0,1-.17-.48c0-.07,0-.15.05-.21a.27.27,0,0,0-.09-.32.3.3,0,0,1-.1-.19A5.37,5.37,0,0,1,0,12a.5.5,0,0,1,.12-.24c.07-.1.16-.18.23-.28A.55.55,0,0,0,.47,11a.83.83,0,0,1,.27-.78,7.54,7.54,0,0,0,.55-.58.94.94,0,0,0,.3-.53c0-.2.21-.3.42-.41,0,.11.05.2,0,.26a.91.91,0,0,0,.08.93,2.61,2.61,0,0,0,.17.32c0-.13.1-.2.13-.29a.19.19,0,0,1,.22-.13.3.3,0,0,1,.17.13,2.22,2.22,0,0,1,.13.31.73.73,0,0,0,.18-.92,1.25,1.25,0,0,0-.44-.68.33.33,0,0,0-.17,0c-.07,0-.17,0-.2,0a.24.24,0,0,1,0-.3s.05-.07.09-.09.18-.23.15-.4a.27.27,0,0,1,.18-.35c.06,0,.11-.09.16-.12A.49.49,0,0,1,3,7.3c0,.06,0,.13,0,.18s-.11.25-.14.38a2.74,2.74,0,0,0-.08.5c0,.06.07.12.11.18L3,8.59c.07.05.14.15.2.14a1.49,1.49,0,0,0,.4-.15s.05-.06,0-.08,0-.22.11-.3A1.29,1.29,0,0,0,3.93,8a1.33,1.33,0,0,0,.14-.2c0,.07.09.12.08.17A5.13,5.13,0,0,1,4,8.67c0,.16-.13.3-.17.46s-.11.35,0,.52.19.12.27-.05a1.12,1.12,0,0,1,.19-.29c.07-.08.16-.08.22,0l.06.07c.12.12.17.11.23-.06a.42.42,0,0,1,0-.1.39.39,0,0,0-.08-.52,1,1,0,0,1-.2-.36,1,1,0,0,1,0-.25l.13.1a.38.38,0,0,0,.48,0s.07,0,.06-.08c0-.25.24-.36.29-.61,0,.07.09.1.09.13a1.14,1.14,0,0,1-.1.45c-.09.16-.22.29-.15.5a.48.48,0,0,1,0,.26c-.05.16-.09.33-.15.49s-.12.24-.18.36,0,0,0,0a3.63,3.63,0,0,0-.13.57.57.57,0,0,0,.19.43c.07.07.13.1.2,0l.19-.3.09-.16c.18.12.36.22.53.34s.16.07.18-.06.06-.28.08-.42a.26.26,0,0,0-.18-.29,1.35,1.35,0,0,1-.56-.47c0-.06,0-.17,0-.26L6,9.34a.15.15,0,0,0,.12-.05.28.28,0,0,1,.37-.14s.09,0,.12,0a1.19,1.19,0,0,0,.25-.66,1.19,1.19,0,0,0-.09-.15l-.09-.21a.33.33,0,0,0,0-.13c-.09-.11-.2-.22-.3-.33a.21.21,0,0,1,0-.28l.39.21.08,0a1,1,0,0,0,.4-.27c0-.26.08-.53.1-.8,0-.07-.06-.16-.1-.23l-.16-.23-.13-.18-.09-.17c.08,0,.16,0,.23,0A3.71,3.71,0,0,1,7.45,6a2.14,2.14,0,0,1,.06-.31.61.61,0,0,1,.12-.16s.08.1.08.16,0,.34,0,.52,0,.08.07.11a.3.3,0,0,1,.07.37l-.28-.15c0,.22,0,.4,0,.59s0,.23-.06.35a5.48,5.48,0,0,0,0,.57.38.38,0,0,1-.14.38.61.61,0,0,0-.21.53A1.25,1.25,0,0,1,7,9.28l-.09.31s0,.05,0,.06c-.14.28.06.47.17.68a.25.25,0,0,0,.29.13s0-.05.06-.07a1.29,1.29,0,0,0,0-.19c.07-.25.25-.31.45-.15s.27.23.47-.08a.52.52,0,0,1,.11-.1.94.94,0,0,1,.09.12.53.53,0,0,1,0,.41,3.73,3.73,0,0,0-.12.58c0,.13.19.36.32.35a.14.14,0,0,0,.11-.09c.1-.34.23-.4.56-.26l.19.09a2.19,2.19,0,0,0,.17-.29.33.33,0,0,0,0-.21c0-.05-.08-.09-.09-.15a.42.42,0,0,0-.32-.32A1.25,1.25,0,0,1,9,9.88c-.12-.09-.24-.18-.35-.28s-.13-.15-.2-.21a.85.85,0,0,0-.29-.17A.43.43,0,0,1,7.91,9a.7.7,0,0,0-.16-.14.18.18,0,0,1,0-.27c0-.08.1-.08.16,0L8,8.7c.08.05.17.11.26,0l.06,0c.41,0,.39-.36.47-.62,0,0,0,0,0,0l0,0C9,8,9,8.14,9,8.27L8.91,9c0,.28.19.5.55.53,0,0,0-.08,0-.13a.21.21,0,0,1,.36-.12c.16.12.21.09.25-.1a.41.41,0,0,1,.07-.15c.17-.24.14-.41-.11-.55l0,0c-.09-.29-.43-.33-.57-.56,0,0,0-.13,0-.2a.42.42,0,0,1,.15,0A3.9,3.9,0,0,1,10,8h0a.64.64,0,0,0,.41-.29c0-.14.07-.28.1-.42a.4.4,0,0,1,.25.44,1.11,1.11,0,0,0,0,.6.26.26,0,0,1,0,.12c-.11.41-.21.82-.32,1.23a.79.79,0,0,0,.06.48,1.94,1.94,0,0,0,.15.24c.1.1.22.06.26-.08s0,0,0-.07S11,10,11,10a.82.82,0,0,1,.35.09c.22.15.25.14.34-.12a.77.77,0,0,0,.1-.49.32.32,0,0,0-.08-.12c-.09-.09-.23-.15-.28-.25a.31.31,0,0,0-.2-.2.44.44,0,0,1-.15-.08s0-.07-.05-.12l.12,0a.83.83,0,0,0,.21.06c.11,0,.24,0,.33-.09a.22.22,0,0,1,.14-.06c.15,0,.13-.07.13-.18A.64.64,0,0,1,12,8.13c.07-.15.08-.36,0-.43a.38.38,0,0,0-.13-.06.81.81,0,0,1-.5-.58l.41.06a.22.22,0,0,0,.28-.23c0-.19.08-.38.09-.58a3.23,3.23,0,0,0,0-.53s0,0,0,0l-.54-.28a1.21,1.21,0,0,1-.25-.21.41.41,0,0,1,.43,0,.24.24,0,0,0,.26,0c.11,0,.1-.14.1-.24s0-.08,0-.12.11,0,.11.07c.05.21.2.39.15.62a1.45,1.45,0,0,0,0,.36c0,.26,0,.51,0,.77a1.26,1.26,0,0,0,.39.88.46.46,0,0,0,.26.1c.1,0,.19,0,.18-.15s.14-.22.37-.17l.06-.31.06,0c0,.06.12.12.13.19a4.53,4.53,0,0,1,0,.52.7.7,0,0,0,0,.14c0,.06,0,.14,0,.18a.24.24,0,0,1-.18.07,4.54,4.54,0,0,1-.53-.12A.45.45,0,0,1,13,8a.66.66,0,0,0-.7-.12.17.17,0,0,0-.06.14,1.35,1.35,0,0,1-.06.66s0,.06,0,.08c.12.21,0,.37-.07.55a2,2,0,0,0-.07.5c0,.22-.07.45-.11.67a1.49,1.49,0,0,0,0,.21s0,.07,0,.09c-.09.26.11.33.26.44s.15,0,.19-.05l.12-.29c0-.11.09-.15.21-.11h0a1.18,1.18,0,0,0,.31.05,2.53,2.53,0,0,0,.14-.49s0,0,0,0c-.19-.06-.23-.32-.46-.37s-.22-.19-.31-.3,0-.1,0-.12.09,0,.13,0a2.18,2.18,0,0,1,.23.09l.14.07c.07-.13,0-.28.13-.37s.25,0,.39.05c0-.16.07-.31.1-.46s0-.05,0-.07a1.63,1.63,0,0,1,.11-.17c0,.06.13.12.13.18,0,.33,0,.66.05,1,0,.12.06.18.17.19h0c.33.11.37.1.41-.26,0-.13.07-.15.19-.14.28,0,.3,0,.32-.25a.65.65,0,0,1,0-.19.32.32,0,0,0-.21-.42l-.39-.17a.19.19,0,0,1-.1-.28l.32,0s.11,0,.12-.05A.38.38,0,0,1,15,8.1s.09-.08.1-.12,0-.35.05-.53.06-.11.14,0,.06,0,.06.06c0,.18.13.35.05.55a.49.49,0,0,0,.27.66.32.32,0,0,0,.14,0h.26c.09,0,.13,0,.14-.1a.28.28,0,0,1,.29-.24c.11,0,.12,0,.14-.12s.05-.25.08-.38a.44.44,0,0,1,.26.38,1.79,1.79,0,0,0,.11.51c0,.08.16.13.26.19a.19.19,0,0,0,.07-.06.57.57,0,0,0,0-.13c0-.33.13-.41.43-.28L18,8.5a.63.63,0,0,0-.06-.71,4.4,4.4,0,0,0-.45-.3.25.25,0,0,1-.09-.31c.12,0,.22,0,.29-.08s.08,0,.12,0,.1,0,.13,0,.09-.42,0-.53a1.48,1.48,0,0,0-.56-.34,1.14,1.14,0,0,1-.15-.16l0,0a2,2,0,0,1,.35,0c.15,0,.25-.08.2-.23l-.09-.31c0-.1-.07-.16-.18-.15a.76.76,0,0,1-.26-.06.76.76,0,0,0-.16-.06c-.29-.08-.35,0-.29.27a.17.17,0,0,1,0,.1c0,.13,0,.2.13.23S17,6,17,6a.5.5,0,0,0-.1.14s-.05.11-.06.11-.14,0-.14-.07c0-.23-.2-.28-.39-.32a1.3,1.3,0,0,1-.38-.17c-.05,0-.07-.12-.11-.18l0,0a.53.53,0,0,1,.18,0c.15.07.23,0,.31-.09a.27.27,0,0,1,.08-.07c.06-.06.18-.13.17-.17a.8.8,0,0,0-.19-.32c-.12-.09-.29-.12-.41-.22a.63.63,0,0,1-.09-.3c.21.15.49.11.67.31a.28.28,0,0,0,.36.1h0l.67.14a.28.28,0,0,1,.22.2,1,1,0,0,0,.12.19.8.8,0,0,1,.13.19c0,.1.06.2.08.3a.63.63,0,0,0,.45.5.37.37,0,0,1,.29.41c0,.17,0,.34,0,.51a.53.53,0,0,0,.15.44.56.56,0,0,1,.15.65,1.9,1.9,0,0,1-.21.43.31.31,0,0,0,0,.39A.72.72,0,0,1,19,10a.53.53,0,0,0,0,.58,1.22,1.22,0,0,1,.14.28,2.25,2.25,0,0,0,.35.62c.11.11.12.31.2.45a5.65,5.65,0,0,1,.56,1.5.37.37,0,0,0,.05.11,2.86,2.86,0,0,1,.45,1.26c.06.27.18.52.24.78.13.63.25,1.26.38,1.88a2.81,2.81,0,0,1,.05.82c0,.24.06.48.07.73a3.54,3.54,0,0,1,0,.65c0,.35-.08.69-.11,1a.5.5,0,0,0,0,.21,2,2,0,0,1-.05.87l-.05.08c-.06-.19-.1-.35-.14-.5s-.13-.54-.19-.81-.07-.36-.11-.55c0,0,0-.1,0-.13a1.43,1.43,0,0,1-.26-.78.5.5,0,0,0-.1-.19c0-.09-.12-.18-.16-.27a4.62,4.62,0,0,0-.4-1,3.31,3.31,0,0,1-.22-.65c0-.09-.07-.19-.11-.28s-.15-.38-.23-.56a.6.6,0,0,0-.1-.23,2,2,0,0,1-.37-.76c0-.14-.11-.27-.17-.4a1.59,1.59,0,0,1-.12-.27c-.05-.29-.27-.48-.39-.72a.89.89,0,0,1-.19-.47.16.16,0,0,0-.06-.14,1.93,1.93,0,0,1-.43-.73,1.77,1.77,0,0,0-.21-.32L17,11.68a.28.28,0,0,0-.37-.14c-.08,0-.13.1-.08.19a.71.71,0,0,0,.11.17.47.47,0,0,1,.18.5c0,.07,0,.17.07.2a.84.84,0,0,1,.31.57,1.27,1.27,0,0,0,.33.64,1.53,1.53,0,0,1,.23.48c.07.15.14.29.2.44s.13.29.2.43l.24.56c.08.17.15.34.23.5s.11.17.16.26.11.13.12.21a1.32,1.32,0,0,0,.37.72s0,0,0,0c.09.39.43.67.47,1.07a.68.68,0,0,0,.22.54c.08.06.06.23.09.35s.07.23.1.34,0,.05.05.08c.06.46.29.87.32,1.34a1.82,1.82,0,0,0,.17.73,3.56,3.56,0,0,1,.12.62A1.18,1.18,0,0,1,21,23a2.35,2.35,0,0,1-.11.35h-.08c0-.16-.08-.33-.11-.49s-.05-.29-.07-.44,0-.16-.05-.25-.07-.26-.11-.39-.08-.13-.09-.2a3.37,3.37,0,0,0-.31-.76,1.87,1.87,0,0,1-.07-.22c0-.13-.08-.26-.13-.38a1.84,1.84,0,0,0-.09-.25c0-.13-.11-.25-.15-.38a2.22,2.22,0,0,1-.1-.5.73.73,0,0,0-.06-.32,3.58,3.58,0,0,1-.23-.65c0-.09-.08-.18-.11-.27l-.24-.63s0-.1-.05-.15-.08-.12-.11-.19c-.13-.31-.24-.62-.39-.92s-.11-.44-.26-.61a1.48,1.48,0,0,1-.27-.43.38.38,0,0,1,0-.1.62.62,0,0,0-.21-.52,2.73,2.73,0,0,1-.25-.55c-.07-.14-.13-.27-.21-.4l-.39-.71s0-.1-.07-.14a1.15,1.15,0,0,1-.32-.54c0-.13-.16-.17-.3-.11l-.17.06c-.15.06-.2.14-.13.29a2,2,0,0,0,.34.64.37.37,0,0,1,.06.49c-.08-.1-.15-.19-.21-.28s-.24-.41-.36-.62a.32.32,0,0,0-.58,0,.27.27,0,0,0,0,.18c0,.12.11.23.14.34a.53.53,0,0,1,0,.24.84.84,0,0,1-.37-.51c0-.13-.1-.16-.23-.1s-.24.1-.14.35,0,.28.09.41a.4.4,0,0,0,.12.21c.2.23.21.32,0,.59a.46.46,0,0,1-.26-.33.73.73,0,0,0-.2-.34,1.42,1.42,0,0,1-.23-.42c0-.1-.13-.14-.22-.09s-.1.11-.09.16a1.33,1.33,0,0,0,.1.28l.12.37a.58.58,0,0,0,.08.18,1,1,0,0,1,.22.59.54.54,0,0,0,.09.24,2.59,2.59,0,0,1,.43,1.06,1.12,1.12,0,0,0,.18.42,1.88,1.88,0,0,1,.28.59,1.15,1.15,0,0,0,.18.39.67.67,0,0,1,.13.41.26.26,0,0,0,.09.25.34.34,0,0,1,0,.44.34.34,0,0,1-.2-.31.43.43,0,0,0-.15-.33c-.09-.08-.1-.24-.14-.37a1.09,1.09,0,0,0-.11-.27,1.46,1.46,0,0,1-.33-.79.51.51,0,0,0-.17-.35,1.66,1.66,0,0,1-.53-.85c-.06-.15-.15-.28-.22-.43s-.19-.41-.28-.61c0,0,0-.06,0-.08-.12-.2-.23-.4-.36-.59s-.1-.06-.15-.08-.06.13-.05.18c.05.22.11.43.18.65a.16.16,0,0,0,.05.09c.22.18.23.44.31.68s.13.22.18.34a3.74,3.74,0,0,1,.27.7,1.44,1.44,0,0,0,.21.53,1.73,1.73,0,0,1,.16.3l.43,1a.36.36,0,0,1,.07.17c0,.45.34.8.45,1.23,0,.09.11.17.15.27l.15.42c.05.18.11.35.17.53s.09.29.14.44a.49.49,0,0,0,.08.18,1.2,1.2,0,0,1,.27.62.43.43,0,0,0,0,.12c.16.34.33.66.47,1a4.53,4.53,0,0,0,.45.91.32.32,0,0,1,.07.23.73.73,0,0,0,.21.49.58.58,0,0,1,.11.24c0,.2.15.38.08.59,0,0,.05.08.07.13a1,1,0,0,1,.15.4A5.81,5.81,0,0,0,18,27.2a.18.18,0,0,1-.11.23c-.11,0-.15,0-.18-.14s-.16-.47-.24-.7a.35.35,0,0,1,0-.14.75.75,0,0,0-.17-.4,1.4,1.4,0,0,1-.16-.5c0-.12,0-.22-.17-.29a.33.33,0,0,1-.13-.17.9.9,0,0,1-.09-.72.33.33,0,0,0,0-.19c-.08-.26-.17-.51-.26-.76s-.09-.19-.13-.29,0-.06-.05-.09c-.12-.36-.22-.71-.35-1.06s-.2-.41-.29-.61c0,0-.05-.06-.05-.09,0-.39-.35-.68-.38-1.07A.12.12,0,0,0,15,20.1a.17.17,0,0,1-.22-.12,1.15,1.15,0,0,0-.1-.23.19.19,0,0,1,0-.24c.07-.06.09-.12,0-.2a1.34,1.34,0,0,1-.24-.62,1.14,1.14,0,0,0-.19-.45,1.8,1.8,0,0,1-.33-.75,1.35,1.35,0,0,0-.26-.57.92.92,0,0,1-.19-.47.49.49,0,0,0-.12-.25,1.93,1.93,0,0,1-.43-.87,1.2,1.2,0,0,0-.17-.34l-.28-.51-.17-.28-.12-.2a3,3,0,0,0-.2-.29.09.09,0,0,0-.09,0,.15.15,0,0,0,0,.09.65.65,0,0,0,.05.2c.08.2.18.4.26.6s.16.47.26.7.14.19.18.3a3.65,3.65,0,0,1,.29.71,1.73,1.73,0,0,0,.2.55,2.81,2.81,0,0,1,.4.94,3.84,3.84,0,0,0,.39,1,3,3,0,0,1,.4.94s0,0,0,0a8.75,8.75,0,0,1,.53,1.17,2,2,0,0,1,.12.34c.06.14.12.28.17.42s.16.39.23.58,0,.11.05.15c.23.26.24.64.43.92a.37.37,0,0,1,.07.14c.1.27.18.54.27.81a.36.36,0,0,0,.07.1,1.18,1.18,0,0,1,.29.76s0,.1,0,.12c.24.24.14.61.33.88.06.09,0,.24.05.37a.21.21,0,0,0,0,.08c.12.29.23.59.36.87s.05.24-.11.29-.31.11-.46.18-.11.11-.1.15a.24.24,0,0,0,.14.14,1.59,1.59,0,0,0,1-.18c.14-.09.23-.26.41-.3Zm-2.27,0-.63-1.24a1.39,1.39,0,0,1-.18-.49.78.78,0,0,0-.13-.38,2.41,2.41,0,0,1-.27-.66,1.35,1.35,0,0,0-.27-.63,1.74,1.74,0,0,1-.28-.67,1,1,0,0,0-.21-.49,1.32,1.32,0,0,1-.34-.91A.4.4,0,0,0,13.7,22a2.82,2.82,0,0,1-.58-1.11c-.11-.23-.1-.52-.34-.7,0,0,0,0,0-.05a4.65,4.65,0,0,0-.49-1,.28.28,0,0,1-.06-.18,1.05,1.05,0,0,0-.23-.53,2.71,2.71,0,0,1-.38-.83,2.53,2.53,0,0,0-.32-.8,1.67,1.67,0,0,1-.29-.56.85.85,0,0,0-.19-.49,1,1,0,0,1-.09-.18c-.13-.32-.26-.65-.4-1,0,0-.09-.08-.14-.12s-.09.11-.1.18a.87.87,0,0,0,0,.22c.06.16.13.31.19.46l.33.89c0,.06.08.1.12.15s.27.35.21.59a.65.65,0,0,0,.22.63.9.9,0,0,1,.4.75,2,2,0,0,0,.34.89,1.05,1.05,0,0,1,.13.35,1.46,1.46,0,0,0,.2.46,9.11,9.11,0,0,1,.37.91c0,.12.09.25.14.37s.13.25.18.38.07.38.25.5,0,.07.06.11c.16.29.13.65.34.94s.08.56.37.71v0l.29.69s0,.1.06.12a.8.8,0,0,1,.28.56,1.75,1.75,0,0,0,.11.24c.08.14.21.24.22.42s.07.13.13.16a.63.63,0,0,1,.27.49.74.74,0,0,0,.14.57,1.26,1.26,0,0,1,.18.32C15.74,27.81,15.85,27.86,16.1,27.73Zm-2.62-8.6,0,0a1.73,1.73,0,0,0-.16-.3.75.75,0,0,1-.2-.42A.86.86,0,0,0,13,18a1.48,1.48,0,0,1-.39-.92.51.51,0,0,0-.13-.31,1.8,1.8,0,0,1-.45-.89,2.2,2.2,0,0,0-.17-.39c-.08-.17-.17-.33-.24-.5s-.21-.48-.33-.72c0-.05-.1-.07-.15-.1s-.07.15,0,.21c.11.3.24.59.36.89a.64.64,0,0,1,.06.18,1.48,1.48,0,0,0,.26.59,1,1,0,0,1,.21.54.72.72,0,0,0,.19.55,2.56,2.56,0,0,1,.54,1.14,1,1,0,0,0,.18.41.91.91,0,0,1,.17.42,1.33,1.33,0,0,0,.1.28,2.36,2.36,0,0,1,.26.59,1,1,0,0,0,.3.66l0,.05a6.74,6.74,0,0,1,.4,1.25.49.49,0,0,0,.1.22,2.74,2.74,0,0,1,.38,1,.55.55,0,0,0,.15.28,1.06,1.06,0,0,1,.34.66,2.07,2.07,0,0,0,.27.69,2.07,2.07,0,0,1,.27.56,1.86,1.86,0,0,0,.29.75s0,.08,0,.13c.06.25.13.5.19.75,0,0,0,0,0,0,.13.19.26.38.37.58a.16.16,0,0,0,.25.06c.09,0,.18-.12.09-.24a1,1,0,0,1-.21-.48c0-.05-.06-.09-.08-.13s-.28-.33-.28-.56a.14.14,0,0,0,0-.09.85.85,0,0,1-.2-.56,1.2,1.2,0,0,0-.09-.21,3.38,3.38,0,0,1-.18-.44c-.07-.26-.12-.52-.18-.78a.15.15,0,0,0-.05-.06.65.65,0,0,1-.19-.45.55.55,0,0,0-.06-.18,2.35,2.35,0,0,1-.35-.81.24.24,0,0,0-.05-.1,1.16,1.16,0,0,1-.27-.71.65.65,0,0,0-.08-.22c-.1-.21-.21-.42-.3-.63s-.21-.57-.32-.86a2,2,0,0,0-.13-.18A2,2,0,0,1,13.48,19.13ZM9.73,16.6a.52.52,0,0,0,0,.41l.37.87c.12.28.24.55.35.84s.16.46.24.69l0,.05a1.15,1.15,0,0,1,.33.68,1.58,1.58,0,0,0,.11.37c.12.3.24.59.37.88,0,.06.08.12.11.18a.8.8,0,0,1,.13.19c.07.18.12.37.2.54a2.88,2.88,0,0,1,.28.59,1.3,1.3,0,0,0,.31.62c.05.06.05.17.09.25a2.53,2.53,0,0,0,.12.23l.16.29a1.12,1.12,0,0,0,.14.29,5.17,5.17,0,0,1,.61,1c.05.08.11.15.16.22a1.47,1.47,0,0,1,.29.49,1,1,0,0,0,.21.45,2.22,2.22,0,0,1,.28.58.76.76,0,0,0,.22.4,1,1,0,0,0,.19.16.76.76,0,0,0,.16,0c0-.06,0-.13,0-.17-.12-.2-.25-.39-.36-.59s-.21-.43-.32-.65a3.92,3.92,0,0,0-.41-.85.67.67,0,0,1-.19-.53.25.25,0,0,0-.06-.17,1.5,1.5,0,0,1-.45-.88.3.3,0,0,0-.1-.17.65.65,0,0,1-.25-.45,1,1,0,0,0-.22-.47,3.75,3.75,0,0,1-.25-.49c-.06-.12-.11-.24-.18-.36l-.26-.47c-.08-.15-.18-.29-.26-.43a1.08,1.08,0,0,1-.12-.24c-.11-.29-.2-.6-.3-.9a1.48,1.48,0,0,1-.08-.13l-.33-.6a1.32,1.32,0,0,0-.15-.29,1.93,1.93,0,0,1-.42-.89c-.1-.39-.3-.73-.42-1.09A1,1,0,0,0,9.73,16.6Zm2.06,10.12-.06-.14a4.13,4.13,0,0,1-.54-.9s0-.06-.07-.09l-.26-.4L10.73,25a2.34,2.34,0,0,1-.15-.27c-.05-.1-.06-.21-.11-.3a1.11,1.11,0,0,1-.25-.6s0-.05,0-.08a6.74,6.74,0,0,1-.64-1.18c0-.12-.16-.21-.23-.32A.87.87,0,0,1,9.15,22c-.08-.25-.33-.42-.32-.71,0,0-.05,0-.07-.08l-.31-.56-.08-.13a3.18,3.18,0,0,1-.23-.4c-.12-.26-.22-.53-.32-.8s-.1-.31-.15-.47a1.34,1.34,0,0,0-.13-.27,1.9,1.9,0,0,1-.41-1,1.35,1.35,0,0,0-.26-.66,1,1,0,0,1-.17-.27c-.09-.25-.16-.51-.24-.76,0,0-.08-.07-.12-.11s-.11.12-.1.16a1.24,1.24,0,0,0,.15.47,1.3,1.3,0,0,1,.26.8.45.45,0,0,0,0,.19,2,2,0,0,1,.15.29,5.36,5.36,0,0,0,.52,1.4.42.42,0,0,1,0,.12c0,.09.07.18.1.26s.1.23.14.35c.11.3.21.61.33.91s.21.48.32.72l.24.5,0,0a1,1,0,0,1,.25.48.18.18,0,0,0,.11.1c.15,0,.38.32.32.46a.45.45,0,0,0,.13.47,1.07,1.07,0,0,1,.35.55s0,.08.09.1a.81.81,0,0,1,.28.42c.14.28.3.55.45.82l.08.09a1,1,0,0,1,.13.16c.21.32.41.64.62.95A.34.34,0,0,0,11.79,26.72ZM9,18l.23.44a.76.76,0,0,1,.12.19c.13.39.25.78.37,1.17,0,0,0,.07.05.1a6.77,6.77,0,0,1,.59,1.21c.11.28.2.55.31.83a.57.57,0,0,0,.08.13,1.87,1.87,0,0,1,.2.29c.06.14.08.29.14.43s.18.34.28.52l.55,1s0,0,0,0,.17.23.26.35.11.22.2.27a.7.7,0,0,1,.34.51A1,1,0,0,0,13,26a1.31,1.31,0,0,1,.39.61.69.69,0,0,0,.23.37,1.57,1.57,0,0,1,.44.64,1.18,1.18,0,0,0,.23.32s.13,0,.15,0a.17.17,0,0,0,.05-.16,2.17,2.17,0,0,0-.23-.3c-.11-.15-.22-.29-.32-.44s-.23-.4-.35-.6a2,2,0,0,1-.18-.26L13,25.26c-.07-.16-.15-.32-.22-.47L12.38,24s0,0,0-.05l-.24-.51A.71.71,0,0,0,12,23.3a1.61,1.61,0,0,1-.43-.8,1.1,1.1,0,0,0-.17-.29l-.23-.32a3.79,3.79,0,0,1-.2-.34,3.07,3.07,0,0,1-.24-.48,1,1,0,0,0-.23-.47c-.07-.06-.16-.13-.18-.21-.1-.47-.46-.83-.55-1.3A.42.42,0,0,0,9.71,19a1.91,1.91,0,0,1-.24-.44A1.22,1.22,0,0,0,9.19,18s-.09-.07-.12-.06S9,18,9,18Zm4,8.9-.15-.27-.3-.47c-.06-.1-.08-.23-.16-.3a6,6,0,0,1-.65-1.26c-.19-.33-.38-.65-.55-1a10.55,10.55,0,0,0-.59-.89c0-.05-.05-.1-.07-.14s-.14-.34-.23-.49c-.21-.38-.47-.75-.66-1.14a4.16,4.16,0,0,0-.28-.51.91.91,0,0,1-.07-.14L9.08,20a1.51,1.51,0,0,1-.1-.17c-.11-.26-.22-.52-.32-.78s-.06-.23-.1-.34a3.71,3.71,0,0,0-.16-.47c-.09-.17-.2-.34-.28-.52s-.27-.63-.42-.93c0-.06-.12-.08-.18-.11a.55.55,0,0,0,0,.22,1.4,1.4,0,0,0,.13.36c.08.15.17.29.26.44a1.09,1.09,0,0,1,.08.15c.15.3.06.68.31.95v0c.08.22.16.45.26.68a5.22,5.22,0,0,1,.24.54,6.61,6.61,0,0,0,.5,1.2c.16.29.28.6.41.9a1.38,1.38,0,0,0,.14.3,8.28,8.28,0,0,1,.49,1l.19.29.27.4c0,.06.06.17.12.19s.16.16.22.26l.17.25.3.48c0,.06.07.16.13.18.26.12.33.36.42.59a.92.92,0,0,0,.13.21c.06.08.14.16.2.25s.11.2.16.3S12.81,27,13,26.94Zm8.24-6.64a1,1,0,0,0,.06-.61c0-.11-.06-.22-.08-.33-.08-.4-.15-.8-.23-1.19A1.27,1.27,0,0,0,20.9,18c-.13-.33-.27-.65-.38-1a5.24,5.24,0,0,0-.44-1.07.65.65,0,0,1-.08-.28.71.71,0,0,0-.16-.39,1.1,1.1,0,0,1-.21-.36,2.53,2.53,0,0,0-.31-.74c-.21-.26-.22-.63-.42-.91-.08-.11-.09-.27-.17-.38-.29-.38-.32-.9-.68-1.24a0,0,0,0,1,0,0c-.11-.17-.21-.34-.32-.5A.14.14,0,0,0,17.6,11a.23.23,0,0,0-.11.13.22.22,0,0,0,.05.16,1.38,1.38,0,0,1,.32.8c0,.06.05.16.09.17.2.08.24.25.29.42a4.25,4.25,0,0,0,.21.43,2.16,2.16,0,0,1,.17.34c.05.12.06.25.1.38s0,.11.07.13a.7.7,0,0,1,.3.57.4.4,0,0,0,.09.25,1.24,1.24,0,0,1,.28.5,1.61,1.61,0,0,0,.33.65.44.44,0,0,1,.07.17c.09.25.19.49.28.74a2.06,2.06,0,0,1,.24.8c0,.06,0,.13.07.19a1.65,1.65,0,0,1,.29.89.94.94,0,0,0,.07.22,2.65,2.65,0,0,1,.16.66C21,19.9,21.2,20.05,21.21,20.3ZM9.7,25c-.09-.14-.17-.24-.24-.36a.62.62,0,0,1-.13-.33.3.3,0,0,0-.07-.23A2.9,2.9,0,0,1,9,23.76c-.08-.15-.13-.31-.21-.47s-.15-.22-.21-.34c-.14-.3-.27-.6-.4-.89L8,21.59l-.07-.11a1.08,1.08,0,0,1-.15-.28c-.06-.14-.09-.3-.15-.44s-.14-.23-.2-.35-.07-.22-.12-.33-.18-.28-.25-.43-.18-.44-.27-.66a1.48,1.48,0,0,0-.08-.13c-.09-.21-.2-.41-.28-.62s-.18-.61-.27-.91c0,0,0,0,0,0l-.27-.65c-.08-.22-.15-.44-.24-.66,0-.05-.09-.08-.14-.11l0,0,.15.52.48,1.38a.93.93,0,0,1,0,.24l.06.24s.07.1.08.16c.14.63.5,1.18.63,1.82,0,0,0,.07.05.11s.2.39.29.58.12.28.19.41.29.46.4.7a5.66,5.66,0,0,1,.2.58.63.63,0,0,0,.13.2c.06.07.15.13.18.21s.09.34.17.48.24.26.33.4c.19.31.36.63.54.95C9.4,25,9.51,25.05,9.7,25ZM8,24.07l.06,0c-.07-.13-.14-.27-.2-.41s-.14-.31-.2-.47a4.84,4.84,0,0,0-.18-.49c-.1-.2-.24-.38-.33-.59a6.73,6.73,0,0,0-.35-.92c-.22-.35-.16-.78-.41-1.1,0,0,0-.12,0-.18s0-.14-.09-.17A.73.73,0,0,1,6,19.13C6,19.07,6,19,6,19a.76.76,0,0,1-.23-.55.66.66,0,0,0-.06-.2c-.07-.17-.13-.34-.2-.5s-.07-.23-.11-.34a1.11,1.11,0,0,1-.12-.3,2.13,2.13,0,0,0-.34-.84s-.1-.06-.15-.09a.58.58,0,0,0,0,.18c0,.11.11.21.1.31a.67.67,0,0,0,.08.37c.06.15.1.3.16.46s.06.22.11.32a1.18,1.18,0,0,1,.18.63.58.58,0,0,0,0,.14c.13.29.26.58.4.87s0,.6.31.81c0,0,0,.05,0,.08l.26.83a3.82,3.82,0,0,0,.13.36c.1.23.21.44.31.66l0,.05c.15.06.18.2.22.32s.09.36.16.52.26.5.39.74A.47.47,0,0,0,8,24.07Zm12.74-7.39c.14-.08.1-.18.07-.28s-.11-.45-.17-.68-.05-.3-.1-.45-.15-.38-.22-.58L20,13.54c0-.09-.07-.17-.11-.26l-.29-.62a1.13,1.13,0,0,0-.19-.38,1.72,1.72,0,0,1-.33-.59,2.75,2.75,0,0,0-.14-.3l-.46-.66c-.05-.07-.11-.14-.19-.07s0,.13,0,.19.05.07.07.11.26.26.29.42a2.75,2.75,0,0,0,.32.67c.13.21.18.46.29.68s.16.18.2.29a6.65,6.65,0,0,1,.35.83c.11.38.23.75.37,1.12a4.4,4.4,0,0,1,.26.65c.09.32.25.6.34.92C20.72,16.58,20.74,16.62,20.76,16.68ZM4,16.32c0,.1-.06.18,0,.23s.17.39.24.59a1.14,1.14,0,0,1,.13.46,1.35,1.35,0,0,0,.1.53,5.6,5.6,0,0,1,.26.68,2.2,2.2,0,0,0,.31.74,1.15,1.15,0,0,1,.14.32c.06.17.1.34.16.5s.15.38.23.57l.14.32.15.37c0,.1.09.21.14.31a1.64,1.64,0,0,0,.14.22,1.7,1.7,0,0,0,.19.18,1.14,1.14,0,0,0-.13-.69A1.4,1.4,0,0,1,6,21.26a1,1,0,0,0-.22-.4,1.16,1.16,0,0,1-.21-.53,1,1,0,0,0,0-.34,4.48,4.48,0,0,1-.2-.44c-.1-.27-.18-.55-.28-.82a1.51,1.51,0,0,0-.11-.22c0-.11-.09-.21-.13-.32s-.08-.31-.13-.46c-.11-.3-.24-.6-.34-.9A1,1,0,0,0,4,16.32Zm2.4-4.59s.08.11.12.15l.18.15a.22.22,0,0,0,.39,0l.07-.14c.05-.1.12-.12.22,0l.22.16c.11.08.18.06.23-.06s0-.11.07-.15a.22.22,0,0,0,0-.3,4.64,4.64,0,0,1-.4-.36A.51.51,0,0,0,6.83,11s-.1,0-.11.06C6.6,11.25,6.5,11.48,6.38,11.73Zm-1.94-.92a.48.48,0,0,0-.26-.42,2.1,2.1,0,0,1-.3-.22c-.07-.06-.14-.11-.23,0a.66.66,0,0,1-.15,0,.36.36,0,0,0-.13.11,7.32,7.32,0,0,0-.23.76c0,.14.11.37.24.35s.11-.14.17-.22,0,0,0-.06A.23.23,0,0,1,3.94,11a.55.55,0,0,0,.14.12s.14,0,.16,0S4.38,10.91,4.44,10.81Zm10.82-.88c0,.3,0,.32.33.34h.06c.1,0,.13,0,.15-.1a.66.66,0,0,1,0-.14.29.29,0,0,1,.28-.24c.1,0,.22,0,.27,0a.57.57,0,0,0,.06-.27l0-.07c0-.16-.22-.4-.38-.35a.26.26,0,0,1-.27-.06.26.26,0,0,0-.3,0,.22.22,0,0,0-.12.26,1,1,0,0,1,0,.29C15.32,9.71,15.29,9.82,15.26,9.93ZM1.39,11.51c0,.17.05.32.09.48s.05.06.07.1.08-.05.1-.09.12-.21.18-.31.19-.19.31,0a.25.25,0,0,0,0,.07s.06.07.09.07a.16.16,0,0,0,.09-.09c.1-.29.22-.59,0-.87a1.05,1.05,0,0,1-.07-.11c-.12-.18-.21-.21-.39-.07a.55.55,0,0,0-.18.19c-.09.16-.17.33-.25.5A1.13,1.13,0,0,0,1.39,11.51Zm3.36,1.15.12-.37c.06-.14.13-.17.26-.09l.3.18a.18.18,0,0,0,.16,0c.13-.19.11-.25,0-.43,0,0-.06-.08-.1-.12L5,11.28a.53.53,0,0,0-.49.48.77.77,0,0,1-.07.16A.57.57,0,0,0,4.75,12.66Zm6.62-1.15L10.53,11a.3.3,0,0,0-.39.19c-.06.18-.11.37-.18.55a.26.26,0,0,0,.13.35c.17.1.2.09.33-.07s.06-.1.1-.14.12-.12.18-.12a.63.63,0,0,1,.25.09c.18.11.22.1.31-.08Zm-7.6,1.12a1.48,1.48,0,0,0-.13-.21c-.12-.13-.25-.24-.37-.37s-.48-.14-.56,0a1.63,1.63,0,0,0-.21.57c0,.09.08.2.15.29a1.61,1.61,0,0,0,.23.22c0-.11.09-.21.13-.32s.06-.14.09-.14a.37.37,0,0,1,.19.09c.08.07.14.16.22.24a.15.15,0,0,0,.13,0C3.69,12.87,3.72,12.76,3.77,12.63Zm4.89.12.22.12a.21.21,0,0,0,.34-.12.44.44,0,0,0,0-.15.21.21,0,0,0-.06-.16,3.89,3.89,0,0,0-.39-.32.37.37,0,0,0-.18,0,.67.67,0,0,0-.55.42c-.13.26-.13.3.1.48s.23.14.34-.07S8.61,12.81,8.66,12.75Zm5.92-1.82c0-.14-.1-.17-.19-.21L14,10.56a.29.29,0,0,0-.37.16c0,.18-.09.36-.13.53a.37.37,0,0,0,.25.34c.1,0,.2,0,.25-.19s.12-.2.29-.17a.24.24,0,0,0,.19,0A1.19,1.19,0,0,0,14.58,10.93ZM6.31,13.67a1,1,0,0,0,.12-.22c.08-.2.17-.24.35-.13l.17.1a.16.16,0,0,0,.12,0,.25.25,0,0,0,0-.42l-.49-.31a.41.41,0,0,0-.42.09A.59.59,0,0,0,6.31,13.67ZM1,13.63l.05,0c.16-.23.33-.23.51,0a.15.15,0,0,0,.13,0,.49.49,0,0,0,0-.51c-.13-.15-.27-.3-.39-.45s-.13-.07-.22,0A.78.78,0,0,0,1,13.63Zm2.59,4.43,0,0,.09.35a1.28,1.28,0,0,1,.11.24.77.77,0,0,0,.2.52.37.37,0,0,1,0,.15l.12.38a1.45,1.45,0,0,1,.11.26,2.12,2.12,0,0,0,.32.72s.06,0,.09.06,0-.07,0-.1a2.63,2.63,0,0,0-.14-.5,1.65,1.65,0,0,1-.18-.61.85.85,0,0,0-.06-.17c-.13-.33-.27-.64-.39-1A.55.55,0,0,0,3.63,18.06Zm5.49-.4c0-.11-.09-.23-.06-.3s0-.18-.05-.26a.87.87,0,0,1-.25-.62.14.14,0,0,0-.07-.1c-.13,0-.13-.13-.15-.23-.09-.29-.17-.57-.27-.86,0,0-.08,0-.12-.08s-.06.09-.06.13.05.23.08.35l.24.8c0,.13.07.26.12.38s.14.29.2.43S8.87,17.65,9.12,17.66ZM16.8,10h0v.09c0,.18.06.25.27.27s.16-.12.18-.22a.18.18,0,0,1,.25-.14c.1,0,.14,0,.17-.1.13-.49.07-.37-.28-.49l-.08,0a.38.38,0,0,0-.49.33A2.4,2.4,0,0,0,16.8,10ZM4.35,14.18l0-.06c.13-.44.14-.44.5-.18a.29.29,0,0,0,.24,0c.08-.05.07-.23,0-.3l-.44-.38a.37.37,0,0,0-.45.1,3,3,0,0,0-.15.36C4,14,4.05,14.13,4.35,14.18Zm3.56-.54a.68.68,0,0,0-.12.12c0,.07,0,.17-.08.24a.34.34,0,0,0,.07.45c.15.14.18.15.28,0s.11-.13.2-.07.22.08.28-.07.07-.08.07-.12,0-.17,0-.2L8,13.65Zm4.66-1.11s.13-.09.16-.16.09-.26-.1-.32-.29-.11-.44-.14a.28.28,0,0,0-.35.15c-.05.09-.08.19-.13.28a.15.15,0,0,0,.09.22c.09,0,.27.11.3.07A.37.37,0,0,1,12.57,12.53ZM3,14.77c.24-.3.23-.42-.07-.62L2.75,14a.38.38,0,0,0-.56.29.57.57,0,0,0,.15.3c.13.16.19.15.32,0l0-.06Zm7.58-1.5a.48.48,0,0,0-.09-.11L10.22,13c-.14-.11-.24-.12-.33,0a2.06,2.06,0,0,0-.23.44c0,.11.07.16.14.19s.17,0,.19,0,.18-.08.27,0a.15.15,0,0,0,.24-.06A1.2,1.2,0,0,0,10.59,13.27ZM6.45,15c.17-.18.16-.34,0-.46l-.3-.17a.3.3,0,0,0-.41.17,1.47,1.47,0,0,1-.06.14c0,.07-.13.15,0,.22a1.59,1.59,0,0,0,.22.13c.15,0,.2-.09.27-.21Zm3.37,1.42L9.66,16a.82.82,0,0,1-.1-.24,2.15,2.15,0,0,0-.36-.85s-.09-.05-.14-.07S9,14.94,9,15s.07.26.12.39l.4.91A.2.2,0,0,0,9.82,16.39Zm.73,10,0,0c-.07-.09-.12-.21-.2-.26a.74.74,0,0,1-.3-.42.54.54,0,0,0-.45-.37,1.47,1.47,0,0,0,.17.47c.09.16.23.29.34.45A.4.4,0,0,0,10.55,26.42Zm4.74-15a3.83,3.83,0,0,0,.48-.28c.08-.06.05-.15,0-.2l-.15-.05c-.38-.11-.42-.09-.53.29C15,11.4,15,11.45,15.29,11.46ZM5.46,22.33c0-.11,0-.19,0-.24-.12-.3-.26-.59-.4-.87a.39.39,0,0,0-.15-.16c-.08,0-.17,0-.15.07a.66.66,0,0,0,.13.33.57.57,0,0,1,.2.39C5.11,22.07,5.28,22.17,5.46,22.33Zm-4.34-8c-.08.22-.17.39,0,.54a4.25,4.25,0,0,0,.39.35s.12,0,.12,0,.06-.25,0-.33A5.76,5.76,0,0,0,1.12,14.32Zm3.33,1-.12-.14c-.27-.27-.32-.26-.45.09,0,.15-.07.25.12.28s.08.06.12.08.23.13.28-.09C4.41,15.44,4.43,15.38,4.45,15.28ZM.92,11.16l0,0,.15-.22c.09-.13.18-.25.26-.38s.15-.15.06-.24-.19,0-.27,0A1.29,1.29,0,0,0,1,10.5C.78,10.72.76,10.85.92,11.16ZM8.13,24.33a.9.9,0,0,0,.19.58,2.26,2.26,0,0,1,.16.26.39.39,0,0,0,.37.23c0-.12-.07-.21-.11-.29s-.12-.23-.17-.35S8.33,24.46,8.13,24.33ZM6.31,22.58a4,4,0,0,0,.12.41c0,.13.11.24.15.36a.43.43,0,0,0,.37.32.56.56,0,0,0-.15-.44.66.66,0,0,1-.17-.37C6.61,22.7,6.53,22.6,6.31,22.58ZM3.06,16a1,1,0,0,0-.57-.47s-.06,0-.07,0,0,.47.11.49A.62.62,0,0,0,3.06,16Zm.6,1.72a1.18,1.18,0,0,0,0-.27A2.79,2.79,0,0,0,3.5,17a2.37,2.37,0,0,0-.19-.35.12.12,0,0,0-.1,0s0,.07,0,.11a1.33,1.33,0,0,0,.05.19,2.6,2.6,0,0,1,.16.44C3.41,17.58,3.41,17.62,3.66,17.72Zm15.21-9.5a1.69,1.69,0,0,0-.17-.33c-.06-.09-.15,0-.21,0s-.06.31-.08.46a.31.31,0,0,0,0,.15c.07,0,.19.05.22,0A1.94,1.94,0,0,0,18.87,8.22ZM.41,12.29a.22.22,0,0,0,0,.09c0,.06,0,.15.08.17s.17,0,.21-.09.11-.34.15-.51,0-.15-.13-.11C.48,11.93.4,12,.41,12.29ZM12.9,27.22c0,.21,0,.28.19.37a.53.53,0,0,1,.11.14.84.84,0,0,0,.06.14.33.33,0,0,0,.33.13s.07-.06.06-.09a.29.29,0,0,0-.21-.25.25.25,0,0,1-.16-.14A.41.41,0,0,0,12.9,27.22ZM7,24.17a1.36,1.36,0,0,0,.39.75h.15s0-.09,0-.13a1.17,1.17,0,0,1-.09-.24.67.67,0,0,0-.31-.42S7.06,24.16,7,24.17ZM18.66,9.62s0-.13-.05-.14a.38.38,0,0,0-.2,0c-.21.09-.19.3-.22.47s.09.14.18.07.07-.09.12-.11S18.65,9.77,18.66,9.62ZM11.83,27.09a.66.66,0,0,0,.29.57l.22.13a1.32,1.32,0,0,0,0-.28A.56.56,0,0,0,11.83,27.09Zm-2.37-.7c.09-.25-.24-.64-.59-.7A.87.87,0,0,0,9.46,26.39ZM7.29,15.62c-.13.05-.18.11-.14.21a2.81,2.81,0,0,0,.1.31.74.74,0,0,0,.2.23.08.08,0,0,0,.13-.09C7.49,16.06,7.39,15.84,7.29,15.62Zm3.36,11.13c0,.33.25.62.5.54C11.11,27,10.86,26.73,10.65,26.75Zm-5-4.08,0,0c-.06.31.18.48.33.7,0,0,.07,0,.08,0a.2.2,0,0,0,0-.11A.86.86,0,0,0,6,23C5.87,22.91,5.77,22.79,5.67,22.67Zm12.65-16c0,.08-.05.15-.06.22a.27.27,0,0,0,.22.32.18.18,0,0,0,.1,0A.34.34,0,0,0,18.32,6.63Z"/><path class="cls-1" d="M18.41,20.41a1.66,1.66,0,0,1,.34.72.44.44,0,0,0,.11.27,1,1,0,0,1,.29.61s0,.07,0,.08a1.25,1.25,0,0,1,.3.83c.05.3.16.57.2.87s.06.52.1.77c0,.06.07.11.11.17a1,1,0,0,0,.16-.12.49.49,0,0,0,.06-.17,2.11,2.11,0,0,0-.14-.93,6.14,6.14,0,0,1-.19-.85c0-.13-.09-.25-.13-.38a.21.21,0,0,1,0-.07c-.1-.35-.18-.71-.29-1.05a4.66,4.66,0,0,0-.22-.56,1.85,1.85,0,0,1,0-.23,2,2,0,0,0-.07-.26,5.44,5.44,0,0,1-.19-.52,1.52,1.52,0,0,0-.19-.54,2.78,2.78,0,0,1-.21-.5l-.27-.66c-.06-.15-.15-.3,0-.46a1.11,1.11,0,0,1,.28.48,1,1,0,0,0,.13.33,1.85,1.85,0,0,1,.33.85.38.38,0,0,0,.1.2,1.11,1.11,0,0,1,.3.69c0,.1.08.2.11.3l.18.47c0,.09.05.2.08.29s.16.36.23.54l.09.25c0,.05.07.1.06.14a3.36,3.36,0,0,0,.15.84c0,.18.07.35.1.53s.07.32.1.48.16.53-.11.76A1.13,1.13,0,0,0,20,25a1,1,0,0,1-.28.37,2,2,0,0,0-.38.52c-.08.13-.14.27-.22.4a.58.58,0,0,1-.13.1c-.07-.35-.14-.66-.21-1,0-.14-.07-.28-.11-.42s0-.14-.05-.21,0-.25-.07-.37c-.11-.38-.23-.76-.35-1.14a2.88,2.88,0,0,0-.13-.31,2.1,2.1,0,0,1-.06-.24l-.13-.46-.16-.58s0-.05,0-.06c-.13-.32-.25-.64-.4-.94a.53.53,0,0,1,0-.5c.11.15.26.27.23.49a.24.24,0,0,0,.09.18.82.82,0,0,1,.24.46,2.66,2.66,0,0,0,.16.39s0,0,0,0l.45,1.05a.73.73,0,0,0,.05.09,1.08,1.08,0,0,1,.27.75v.06a5.17,5.17,0,0,1,.2,1c0,.09,0,.18,0,.27a6,6,0,0,0,.11.61c0,.09.09.12.18,0a.82.82,0,0,0,.17-.86c0-.15-.06-.31-.09-.47a.72.72,0,0,0-.05-.21.86.86,0,0,1-.16-.51.47.47,0,0,0,0-.17c-.09-.27-.18-.55-.28-.82,0,0,0,0,0,0a1.27,1.27,0,0,0-.25-.8s0,0,0-.07c.05-.38-.21-.68-.28-1a2.09,2.09,0,0,1,0-.25Z"/><path class="cls-1" d="M5.67,4.86a1.08,1.08,0,0,1-.31,0A.28.28,0,0,0,5,5a1.09,1.09,0,0,1-.24.29s-.07,0-.09,0,0-.07,0-.09A6.91,6.91,0,0,0,5,4.53a.83.83,0,0,0,0-.41A.5.5,0,0,1,5,3.8c0-.08-.08-.22-.14-.32s-.12-.12-.14-.18a5.85,5.85,0,0,0-.81-1.47,3.29,3.29,0,0,0-.61-.73A.21.21,0,0,1,3.36.75a.46.46,0,0,0,.3-.22A.27.27,0,0,1,4,.4a.49.49,0,0,0,.24,0A.21.21,0,0,1,4.49.5a.52.52,0,0,0,.23.21.49.49,0,0,1,.19.34.3.3,0,0,0,.2.32c.08,0,.13.15.19.24s.12.18.18.27a.7.7,0,0,1,.17.55.54.54,0,0,0,.17.39A.56.56,0,0,1,6,3.08c.1.35.2.7.29,1.06,0,0,0,.1-.07.13a.16.16,0,0,1-.14,0,.31.31,0,0,0-.4.19c-.06.12-.09.21,0,.32ZM5,2.59c0,.1.08.21.12.33s.09.18.13.28.07.22.11.33l.15.37c0,.09.1.14.19.1s.1-.1.06-.19-.08-.29-.12-.43a.92.92,0,0,0-.09-.23c0-.09-.08-.19-.13-.28s-.14-.31-.22-.46S5,2.34,5,2.42A.58.58,0,0,0,5,2.59Zm-.1-.39.05,0c0-.09-.07-.18-.12-.27s-.25-.44-.39-.65A3,3,0,0,0,4,.79s-.13,0-.19,0,0,.07,0,.09.17.23.26.35.33.46.49.7S4.69,2.19,4.85,2.2Z"/><path class="cls-1" d="M16.16,19.71a.89.89,0,0,1,.27.49.88.88,0,0,0,.09.2l.15.41c.07.16.15.32.23.47l.15.31c.09.2.17.41.26.61,0,0,0,0,0,0,.06.42.37.73.48,1.13a1.43,1.43,0,0,1,0,.22c0,.11,0,.21.17.23a.18.18,0,0,1,.08.09,2.53,2.53,0,0,1,.12.36.31.31,0,0,1,0,.19.32.32,0,0,0,0,.33,1.34,1.34,0,0,1,.15.92.4.4,0,0,0,0,.18c.07.25.15.5.21.76a.31.31,0,0,1-.05.21c-.1.11-.2.08-.23-.07a1.2,1.2,0,0,1,0-.2c0-.25-.2-.47-.17-.73a2.11,2.11,0,0,1-.39-1.08s0-.06,0-.08a1.46,1.46,0,0,1-.23-.79.14.14,0,0,0,0-.09,1.92,1.92,0,0,1-.28-.8A1.2,1.2,0,0,0,17,22.7a.86.86,0,0,1-.16-.54c0-.07-.07-.15-.1-.23a1.28,1.28,0,0,1-.14-.37,1.77,1.77,0,0,0-.2-.6c-.05-.1-.07-.22-.11-.32a1.11,1.11,0,0,0-.15-.33A.53.53,0,0,1,16.16,19.71Z"/><path class="cls-1" d="M13,3.72l.38,0c.14,0,.26.07.23.25a.06.06,0,0,0,0,.06,3.58,3.58,0,0,1,.2.78s.07.05.1.09a.7.7,0,0,1,.08.2s-.08.06-.13.08-.13.18-.13.28a5.6,5.6,0,0,0,.07.59.22.22,0,0,0,.11.12.15.15,0,0,1,.13.2s-.08.1-.11.1-.13,0-.13.12a1.47,1.47,0,0,1,0,.21.23.23,0,0,1-.26-.21.35.35,0,0,0-.29-.32.44.44,0,0,1-.34-.4H13a.4.4,0,0,0,.58-.32,1.82,1.82,0,0,0,0-.33.26.26,0,0,0-.16-.21.86.86,0,0,1-.26-.21c-.07-.08,0-.18.08-.22a.56.56,0,0,0,.18-.07s0-.1.05-.15,0-.07,0-.09c.07-.23-.08-.31-.25-.38S13,3.86,13,3.72Z"/><path class="cls-1" d="M4.69.19,5,.22l0,0c.12.23.4.35.45.64,0,.07.12.13.16.2A7.13,7.13,0,0,0,6,1.76a1.85,1.85,0,0,0,.37.51.79.79,0,0,1,.21.44c0,.14,0,.3.15.4a2.6,2.6,0,0,1,.17,1.14s0,0,0,.07,0,0,0,0c-.1-.21-.26-.39-.22-.64v0c-.14-.28-.1-.63-.34-.89a1.08,1.08,0,0,1-.16-.28C6.06,2.3,6,2.1,5.91,1.92s-.11-.1-.15-.17-.25-.43-.38-.65A.7.7,0,0,0,5.25.93,2,2,0,0,1,5,.74C4.92.58,4.82.4,4.69.19Z"/><path class="cls-1" d="M6.78,1.81a.74.74,0,0,1,.41.49c0,.1.12.17.17.26s.14.27.21.4a2,2,0,0,0,.18.36A.32.32,0,0,0,8,3.37a.47.47,0,0,1,.43.08s.08,0,.11,0a.69.69,0,0,1,.19.1.86.86,0,0,1-.53.13.36.36,0,0,0-.35.13,1.53,1.53,0,0,1-.41.27c-.06-.31-.1-.56-.15-.82a1.42,1.42,0,0,0-.08-.18C7.14,3,7.09,2.84,7,2.7a1.36,1.36,0,0,0-.11-.25A.81.81,0,0,1,6.78,1.81Z"/><path class="cls-1" d="M5.77,7.33a.77.77,0,0,1-.1-.18,1.14,1.14,0,0,0-.44-.6,4.06,4.06,0,0,1-.49-.44c-.08-.08,0-.17.08-.16s.4-.16.55-.34.11-.05.16-.07a1.25,1.25,0,0,1,0,.19,1.32,1.32,0,0,0-.2.46.63.63,0,0,0,.24.39c.13.11.27,0,.37-.08a1.14,1.14,0,0,0,.18-.25.16.16,0,0,1,.07-.07s.07.05.06.07a1.42,1.42,0,0,1,0,.36.33.33,0,0,0,0,.29c.1.19,0,.26-.17.28S5.87,7.26,5.77,7.33Z"/><path class="cls-1" d="M4.06,5.68c.14.21.13.25,0,.39s-.07.12-.11.18-.09.16-.16.2-.12.16-.11.26.11.13.2.13l.42,0A.2.2,0,0,0,4.5,6.7a1.51,1.51,0,0,1,.09-.18.23.23,0,0,1,.09.35c-.11.17-.21.35-.32.53a.33.33,0,0,1-.15.16c-.09.05-.16,0-.17-.11A.2.2,0,0,0,4,7.29.47.47,0,0,1,3.69,7a.13.13,0,0,0-.1-.09c-.26,0-.35-.21-.2-.43a4.25,4.25,0,0,1,.35-.39L4,5.83Z"/><path class="cls-1" d="M14.36,4.07a6.18,6.18,0,0,1,.77.18c.08,0,.1.23.12.36s0,.35,0,.53a.33.33,0,0,0,.11.13c.11.08.12.14,0,.23s-.08.12-.13.19-.19,0-.21-.15S15,5.46,15,5.44a4.32,4.32,0,0,1-.51-.16c-.06,0-.09-.12-.13-.18l0,0,.24.06c.12,0,.25.08.27-.13a.11.11,0,0,1,0-.06c.21-.1.11-.26.1-.42a.73.73,0,0,1-.66-.37Z"/><path class="cls-1" d="M10.54,5.69c.12,0,.14.1.16.19s.05.27.08.41a.17.17,0,0,1,0,.07L10.7,7s-.12,0-.15-.09a1.59,1.59,0,0,0-.61-.45.69.69,0,0,1-.22-.23s0-.1.07-.1a1.49,1.49,0,0,1,.3.09c.19.1.31.06.36-.14S10.51,5.83,10.54,5.69Z"/><path class="cls-1" d="M16.71,6.55a.26.26,0,0,1,.2.2c0,.1,0,.22.17.27s0,.18-.07.24a.55.55,0,0,0-.12.14s0,.11-.07.11a.17.17,0,0,1-.15,0,.47.47,0,0,0-.43-.18c-.21,0-.4-.13-.4-.29,0,0,.08,0,.11,0a.83.83,0,0,0,.65-.19C16.66,6.74,16.67,6.63,16.71,6.55Z"/><path class="cls-1" d="M9.17,6.67c0,.18,0,.37,0,.55a.41.41,0,0,1-.12.2s-.11,0-.16-.07L8.4,7.07a.38.38,0,0,1-.12-.16c0-.12,0-.19.13-.15s.36-.1.51-.21l.16-.1.13.21Z"/><path class="cls-1" d="M14.43,6.47h.09A.48.48,0,0,0,15,6.42a.18.18,0,0,0,.12-.19.76.76,0,0,1,0-.21c.17,0,.22.1.23.27a4.6,4.6,0,0,0,.06.52c0,.13,0,.19-.15.16a5.12,5.12,0,0,1-.67-.19C14.46,6.74,14.4,6.64,14.43,6.47Z"/><path class="cls-1" d="M11.29,3.67a3,3,0,0,1,.35.09c.15.05.24,0,.22-.18V3.43c.14,0,.22,0,.24.17s.1.35.12.54a1.53,1.53,0,0,1,0,.36s-.06.06-.09.06-.07,0-.08,0a.42.42,0,0,1-.08-.2c0-.27-.2-.33-.4-.37S11.33,3.85,11.29,3.67Z"/><path class="cls-1" d="M10.4,3.33c.14,0,.22,0,.24.14a3.57,3.57,0,0,1,0,.46s0,.07-.09.11A.76.76,0,0,1,10.5,4,.45.45,0,0,0,10,3.66a2,2,0,0,1-.42,0s-.06-.06-.06-.08a.11.11,0,0,1,.08-.08c.16,0,.31-.08.47,0A.2.2,0,0,0,10.4,3.33Z"/><path class="cls-1" d="M8.61,5.41A.41.41,0,0,0,9,5.14.38.38,0,0,1,9,5L9.08,5s.1.07.1.11a5.93,5.93,0,0,1,0,.73c0,.1-.08.12-.16.08l-.42-.28s-.08-.09-.07-.12A.2.2,0,0,1,8.61,5.41Z"/><path class="cls-1" d="M17.9,17.21a.69.69,0,0,1-.25-.48.6.6,0,0,0-.19-.38.41.41,0,0,1-.05-.52c.07.1.18.19.19.3a2.25,2.25,0,0,0,.31.69C18,16.94,18,17.07,17.9,17.21Z"/><path class="cls-1" d="M5.88,5.2c0-.2.19-.07.29-.11a1.72,1.72,0,0,1,.24,0c.13,0,.18,0,.16.13a2.34,2.34,0,0,0,0,.26c0,.12-.09.18-.2.11S6,5.31,5.88,5.2Z"/><path class="cls-1" d="M10.66,4.38a2.21,2.21,0,0,1,.07.3,2.2,2.2,0,0,1,0,.36s0,.06-.07.07a.17.17,0,0,1-.1,0l-.27-.3c-.07-.06-.05-.11,0-.15Z"/><path class="cls-1" d="M17.1,19.92a.43.43,0,0,1-.18-.36.28.28,0,0,0-.07-.17c-.15-.17-.16-.3,0-.52l.16.35a1.34,1.34,0,0,0,.13.27C17.24,19.63,17.23,19.74,17.1,19.92Z"/><path class="cls-1" d="M17.94,19.06l.15.37a1.36,1.36,0,0,0,.1.21.39.39,0,0,1,0,.5c-.05-.1-.11-.18-.15-.27s-.08-.24-.14-.35a.41.41,0,0,1,0-.44Z"/><path class="cls-1" d="M14.81,14.33l.17.34a2.29,2.29,0,0,0,.14.27.3.3,0,0,1,0,.41.42.42,0,0,1-.18-.27.84.84,0,0,0-.13-.27C14.66,14.64,14.65,14.55,14.81,14.33Z"/><path class="cls-1" d="M16.36,13.56c.05.12.11.23.16.34a1.82,1.82,0,0,0,.16.31c.13.17.14.26,0,.46l-.19-.42a2.1,2.1,0,0,0-.13-.26C16.28,13.86,16.19,13.73,16.36,13.56Z"/><path class="cls-1" d="M6.09.68a1.12,1.12,0,0,1,.49.84A1.39,1.39,0,0,1,6.06.89.88.88,0,0,1,6.09.68Z"/><path class="cls-1" d="M15.91,19.48l-.16-.3a.67.67,0,0,0-.06-.15c-.11-.16-.08-.3,0-.51a.69.69,0,0,1,.06.13,4.9,4.9,0,0,1,.24.52.86.86,0,0,1,0,.3Z"/><path class="cls-1" d="M15.34,15.59a.74.74,0,0,1,.12.16,3.85,3.85,0,0,1,.19.47,1,1,0,0,1,0,.24l-.07,0a2.07,2.07,0,0,1-.15-.25c-.05-.08-.07-.18-.12-.27A.32.32,0,0,1,15.34,15.59Z"/><path class="cls-1" d="M7.68,5a.78.78,0,0,1-.19,0,1.58,1.58,0,0,1-.15-.12,1.14,1.14,0,0,1,.16-.15s.12,0,.17-.1.17,0,.18,0A.58.58,0,0,1,7.78,5S7.7,5,7.68,5Z"/><path class="cls-1" d="M16.33,17.88s.08,0,.09,0,.18.34.26.53,0,.13-.05.2A.91.91,0,0,1,16.33,17.88Z"/><path class="cls-1" d="M5.42.07c.19-.15.41,0,.48.2a.9.9,0,0,1,0,.24C5.62.46,5.59.2,5.42.07Z"/><path class="cls-1" d="M15.49,14.14l-.06-.06a4,4,0,0,1-.21-.41.87.87,0,0,1,0-.28l.06,0a2.12,2.12,0,0,1,.11.21.91.91,0,0,0,.09.17A.24.24,0,0,1,15.49,14.14Z"/><path class="cls-1" d="M16.92,14.87a.62.62,0,0,1,.27.68A.6.6,0,0,1,16.92,14.87Z"/><path class="cls-1" d="M17.45,18.2c.29.25.35.44.21.63A.54.54,0,0,1,17.45,18.2Z"/><path class="cls-1" d="M9.38,4.16a.82.82,0,0,1-.22.26c-.06,0-.22-.13-.21-.22S9.17,4,9.27,4,9.33,4.1,9.38,4.16Z"/><path class="cls-1" d="M15.92,15c-.23-.29-.25-.34-.2-.58A.47.47,0,0,1,15.92,15Z"/><path class="cls-1" d="M16.13,17.55A.39.39,0,0,1,16,17.1.32.32,0,0,1,16.13,17.55Z"/></g></svg>